<svg xmlns="http://www.w3.org/2000/svg" width="64" height="64" viewBox="0 0 64 64" role="img" aria-labelledby="title desc" color="#182238">
  <title id="title">PromisePatch icon</title>
  <desc id="desc">Single-color engineered promise loop with a repaired seam. Set the CSS color property to recolor it.</desc>
  <g fill="currentColor">
    <path d="M8 8h22c11.046 0 18 6.954 18 18s-6.954 18-18 18H20v-8h10c6.252 0 10-3.748 10-10S36.252 16 30 16H20v6H8V8Z"/>
    <path d="M8 30h12v14c0 6.627-5.373 12-12 12V30Z"/>
    <path d="M8 22h12c1.105 0 2 .895 2 2v4c0 1.105-.895 2-2 2H8v-8Z"/>
  </g>
</svg>
